{
  "accessors": [
    {
      "bufferView": 2,
      "componentType": 5126,
      "count": 38,
      "max": [
        0.7362761497497559,
        0.1288788765668869,
        0.002032935619354248
      ],
      "min": [
        -0.008904826827347279,
        0.0,
        -0.7338118553161621
      ],
      "type": "VEC3"
    },
    {
      "bufferView": 2,
      "byteOffset": 456,
      "componentType": 5126,
      "count": 38,
      "max": [
        0.0,
        1.0,
        -0.0
      ],
      "min": [
        0.0,
        -1.0,
        -0.0
      ],
      "type": "VEC3"
    },
    {
      "bufferView": 1,
      "componentType": 5126,
      "count": 38,
      "max": [
        0.8681380748748779,
        0.866905927658081
      ],
      "min": [
        0.49554765224456787,
        0.49898362159729004
      ],
      "type": "VEC2"
    },
    {
      "bufferView": 0,
      "componentType": 5125,
      "count": 72,
      "type": "SCALAR"
    },
    {
      "bufferView": 2,
      "byteOffset": 912,
      "componentType": 5126,
      "count": 61,
      "max": [
        0.6125195026397705,
        0.1288788765668869,
        0.24674487113952637
      ],
      "min": [
        -0.24328221380710602,
        0.0,
        -0.486469030380249
      ],
      "type": "VEC3"
    },
    {
      "bufferView": 2,
      "byteOffset": 1644,
      "componentType": 5126,
      "count": 61,
      "max": [
        7.101616006366385e-08,
        1.0,
        -0.0
      ],
      "min": [
        -6.510235550649668e-08,
        -1.0,
        -0.0
      ],
      "type": "VEC3"
    },
    {
      "bufferView": 1,
      "byteOffset": 304,
      "componentType": 5126,
      "count": 61,
      "max": [
        0.8062597513198853,
        0.7432345151901245
      ],
      "min": [
        0.3783589005470276,
        0.3766276240348816
      ],
      "type": "VEC2"
    },
    {
      "bufferView": 0,
      "byteOffset": 288,
      "componentType": 5125,
      "count": 108,
      "type": "SCALAR"
    },
    {
      "bufferView": 2,
      "byteOffset": 2376,
      "componentType": 5126,
      "count": 51,
      "max": [
        0.8634841442108154,
        0.1288788765668869,
        -0.2468557208776474
      ],
      "min": [
        0.12234652042388916,
        0.0,
        -0.8576202988624573
      ],
      "type": "VEC3"
    },
    {
      "bufferView": 2,
      "byteOffset": 2988,
      "componentType": 5126,
      "count": 51,
      "max": [
        7.520252154336049e-08,
        1.0,
        -0.0
      ],
      "min": [
        -5.785926049384216e-08,
        -1.0,
        -0.0
      ],
      "type": "VEC3"
    },
    {
      "bufferView": 1,
      "byteOffset": 792,
      "componentType": 5126,
      "count": 51,
      "max": [
        0.9317420721054077,
        0.9288101196289063
      ],
      "min": [
        0.5611733198165894,
        0.6234278678894043
      ],
      "type": "VEC2"
    },
    {
      "bufferView": 0,
      "byteOffset": 720,
      "componentType": 5125,
      "count": 96,
      "type": "SCALAR"
    },
    {
      "bufferView": 2,
      "byteOffset": 3600,
      "componentType": 5126,
      "count": 6241,
      "max": [
        1.0,
        0.1288788765668869,
        0.8544891476631165
      ],
      "min": [
        -1.0,
        0.0,
        -1.0
      ],
      "type": "VEC3"
    },
    {
      "bufferView": 2,
      "byteOffset": 78492,
      "componentType": 5126,
      "count": 6241,
      "max": [
        1.0,
        1.0,
        1.0
      ],
      "min": [
        -1.0,
        -1.0,
        -1.0
      ],
      "type": "VEC3"
    },
    {
      "bufferView": 1,
      "byteOffset": 1200,
      "componentType": 5126,
      "count": 6241,
      "max": [
        1.0,
        1.0000001192092896
      ],
      "min": [
        0.0,
        0.07275541871786118
      ],
      "type": "VEC2"
    },
    {
      "bufferView": 0,
      "byteOffset": 1104,
      "componentType": 5125,
      "count": 9348,
      "type": "SCALAR"
    },
    {
      "bufferView": 2,
      "byteOffset": 153384,
      "componentType": 5126,
      "count": 5962,
      "max": [
        1.0,
        0.1288788765668869,
        1.0
      ],
      "min": [
        -1.0,
        0.0,
        -0.8576202988624573
      ],
      "type": "VEC3"
    },
    {
      "bufferView": 2,
      "byteOffset": 224928,
      "componentType": 5126,
      "count": 5962,
      "max": [
        1.0,
        1.0,
        1.0
      ],
      "min": [
        -1.0,
        -1.0,
        -1.0
      ],
      "type": "VEC3"
    },
    {
      "bufferView": 1,
      "byteOffset": 51128,
      "componentType": 5126,
      "count": 5962,
      "max": [
        1.0000001192092896,
        0.9288102388381958
      ],
      "min": [
        0.0,
        0.0
      ],
      "type": "VEC2"
    },
    {
      "bufferView": 0,
      "byteOffset": 38496,
      "componentType": 5125,
      "count": 8961,
      "type": "SCALAR"
    },
    {
      "bufferView": 2,
      "byteOffset": 296472,
      "componentType": 5126,
      "count": 53,
      "max": [
        0.12234654277563095,
        0.1288788765668869,
        0.8544891476631165
      ],
      "min": [
        -0.8606811165809631,
        0.0,
        -0.12163844704627991
      ],
      "type": "VEC3"
    },
    {
      "bufferView": 2,
      "byteOffset": 297108,
      "componentType": 5126,
      "count": 53,
      "max": [
        0.0,
        1.0,
        -0.0
      ],
      "min": [
        -9.067654183070317e-09,
        -1.0,
        -0.0
      ],
      "type": "VEC3"
    },
    {
      "bufferView": 1,
      "byteOffset": 98824,
      "componentType": 5126,
      "count": 53,
      "max": [
        0.5611733198165894,
        0.5608192682266235
      ],
      "min": [
        0.06965944170951843,
        0.07275542616844177
      ],
      "type": "VEC2"
    },
    {
      "bufferView": 0,
      "byteOffset": 74340,
      "componentType": 5125,
      "count": 108,
      "type": "SCALAR"
    },
    {
      "bufferView": 2,
      "byteOffset": 297744,
      "componentType": 5126,
      "count": 871,
      "max": [
        -0.36101722717285156,
        0.1288788765668869,
        0.7345842719078064
      ],
      "min": [
        -0.6259018778800964,
        0.0,
        0.48498713970184326
      ],
      "type": "VEC3"
    },
    {
      "bufferView": 2,
      "byteOffset": 308196,
      "componentType": 5126,
      "count": 871,
      "max": [
        1.0,
        1.0,
        1.0
      ],
      "min": [
        -0.000357695302227512,
        -1.0,
        -0.0003893294488079846
      ],
      "type": "VEC3"
    },
    {
      "bufferView": 1,
      "byteOffset": 99248,
      "componentType": 5126,
      "count": 871,
      "max": [
        0.3194913864135742,
        0.257506400346756
      ],
      "min": [
        0.1870490461587906,
        0.1327078640460968
      ],
      "type": "VEC2"
    },
    {
      "bufferView": 0,
      "byteOffset": 74772,
      "componentType": 5125,
      "count": 1296,
      "type": "SCALAR"
    },
    {
      "bufferView": 2,
      "byteOffset": 318648,
      "componentType": 5126,
      "count": 22,
      "max": [
        -0.36515843868255615,
        0.1288788765668869,
        0.7304430603981018
      ],
      "min": [
        -0.733534574508667,
        0.0,
        0.37086600065231323
      ],
      "type": "VEC3"
    },
    {
      "bufferView": 2,
      "byteOffset": 318912,
      "componentType": 5126,
      "count": 22,
      "max": [
        1.0418660600919338e-08,
        1.0,
        -0.0
      ],
      "min": [
        0.0,
        -1.0,
        -0.0
      ],
      "type": "VEC3"
    },
    {
      "bufferView": 1,
      "byteOffset": 106216,
      "componentType": 5126,
      "count": 22,
      "max": [
        0.3174207806587219,
        0.31456702947616577
      ],
      "min": [
        0.1332327127456665,
        0.1347784698009491
      ],
      "type": "VEC2"
    },
    {
      "bufferView": 0,
      "byteOffset": 79956,
      "componentType": 5125,
      "count": 36,
      "type": "SCALAR"
    },
    {
      "bufferView": 2,
      "byteOffset": 319176,
      "componentType": 5126,
      "count": 870,
      "max": [
        -0.482077956199646,
        0.1288788765668869,
        0.6257004141807556
      ],
      "min": [
        -0.7376757860183716,
        0.0,
        0.36672478914260864
      ],
      "type": "VEC3"
    },
    {
      "bufferView": 2,
      "byteOffset": 329616,
      "componentType": 5126,
      "count": 870,
      "max": [
        0.00037845521001145244,
        1.0,
        0.00036798478686250746
      ],
      "min": [
        -1.0,
        -1.0,
        -1.0
      ],
      "type": "VEC3"
    },
    {
      "bufferView": 1,
      "byteOffset": 106392,
      "componentType": 5126,
      "count": 870,
      "max": [
        0.258961021900177,
        0.31663763523101807
      ],
      "min": [
        0.1311621069908142,
        0.1871497929096222
      ],
      "type": "VEC2"
    },
    {
      "bufferView": 0,
      "byteOffset": 80100,
      "componentType": 5125,
      "count": 1296,
      "type": "SCALAR"
    },
    {
      "bufferView": 2,
      "byteOffset": 340056,
      "componentType": 5126,
      "count": 26,
      "max": [
        -0.008904819376766682,
        0.1288788765668869,
        0.24674487113952637
      ],
      "min": [
        -0.49207794666290283,
        0.0,
        0.002032935619354248
      ],
      "type": "VEC3"
    },
    {
      "bufferView": 2,
      "byteOffset": 340368,
      "componentType": 5126,
      "count": 26,
      "max": [
        2.5512036927466397e-08,
        1.0,
        -0.0
      ],
      "min": [
        0.0,
        -1.0,
        -0.0
      ],
      "type": "VEC3"
    },
    {
      "bufferView": 1,
      "byteOffset": 113352,
      "componentType": 5126,
      "count": 26,
      "max": [
        0.49554765224456787,
        0.4989836513996124
      ],
      "min": [
        0.2539610266685486,
        0.3766276240348816
      ],
      "type": "VEC2"
    },
    {
      "bufferView": 0,
      "byteOffset": 85284,
      "componentType": 5125,
      "count": 48,
      "type": "SCALAR"
    }
  ],
  "asset": {
    "extras": {
      "author": "Rodo10Oto (https://sketchfab.com/Rodo10Oto)",
      "license": "CC-BY-4.0 (http://creativecommons.org/licenses/by/4.0/)",
      "source": "https://sketchfab.com/3d-models/espada-de-diamante-minecraft-9ffcd0393f6846f6b9dbcb3d48657b45",
      "title": "Espada de diamante - Minecraft"
    },
    "generator": "Sketchfab-15.70.0",
    "version": "2.0"
  },
  "bufferViews": [
    {
      "buffer": 0,
      "byteLength": 85476,
      "name": "floatBufferViews",
      "target": 34963
    },
    {
      "buffer": 0,
      "byteLength": 113560,
      "byteOffset": 85476,
      "byteStride": 8,
      "name": "floatBufferViews",
      "target": 34962
    },
    {
      "buffer": 0,
      "byteLength": 340680,
      "byteOffset": 199036,
      "byteStride": 12,
      "name": "floatBufferViews",
      "target": 34962
    }
  ],
  "buffers": [
    {
      "byteLength": 539716,
      "uri": "scene.bin"
    }
  ],
  "materials": [
    {
      "doubleSided": true,
      "name": "Material.002",
      "pbrMetallicRoughness": {
        "baseColorFactor": [
          0.043735,
          0.577581,
          0.401978,
          1.0
        ],
        "metallicFactor": 0.0,
        "roughnessFactor": 0.5
      }
    },
    {
      "doubleSided": true,
      "name": "Material.003",
      "pbrMetallicRoughness": {
        "baseColorFactor": [
          0.0356013,
          0.838799,
          0.603828,
          1.0
        ],
        "metallicFactor": 0.813636,
        "roughnessFactor": 0.154545
      }
    },
    {
      "doubleSided": true,
      "emissiveFactor": [
        0.462019,
        0.462019,
        0.462019
      ],
      "name": "Material.004",
      "pbrMetallicRoughness": {
        "baseColorFactor": [
          0.371238,
          0.991102,
          0.879623,
          1.0
        ],
        "metallicFactor": 0.859091,
        "roughnessFactor": 0.0863636
      }
    },
    {
      "doubleSided": true,
      "name": "Material.005",
      "pbrMetallicRoughness": {
        "baseColorFactor": [
          0.0,
          0.0494936,
          0.0279633,
          1.0
        ],
        "metallicFactor": 0.622727,
        "roughnessFactor": 0.140909
      }
    },
    {
      "doubleSided": true,
      "name": "Material.006",
      "pbrMetallicRoughness": {
        "baseColorFactor": [
          0.0,
          0.0253935,
          0.0125895,
          1.0
        ],
        "metallicFactor": 0.636364,
        "roughnessFactor": 0.0636364
      }
    },
    {
      "doubleSided": true,
      "name": "Material.007",
      "pbrMetallicRoughness": {
        "baseColorFactor": [
          0.0313426,
          0.132863,
          0.0996273,
          1.0
        ],
        "metallicFactor": 0.395455,
        "roughnessFactor": 0.109091
      }
    },
    {
      "doubleSided": true,
      "name": "Material.008",
      "pbrMetallicRoughness": {
        "baseColorFactor": [
          0.028426,
          0.0241576,
          0.0159963,
          1.0
        ],
        "metallicFactor": 0.940909,
        "roughnessFactor": 0.586364
      }
    },
    {
      "doubleSided": true,
      "name": "Material.009",
      "pbrMetallicRoughness": {
        "baseColorFactor": [
          0.246201,
          0.152926,
          0.0273209,
          1.0
        ],
        "metallicFactor": 0.709091,
        "roughnessFactor": 0.422727
      }
    },
    {
      "doubleSided": true,
      "name": "Material.010",
      "pbrMetallicRoughness": {
        "baseColorFactor": [
          0.0722719,
          0.0481718,
          0.0221739,
          1.0
        ],
        "metallicFactor": 0.731818,
        "roughnessFactor": 0.313636
      }
    },
    {
      "doubleSided": true,
      "name": "Material.011",
      "pbrMetallicRoughness": {
        "baseColorFactor": [
          0.0262412,
          0.262251,
          0.198069,
          1.0
        ],
        "metallicFactor": 0.8,
        "roughnessFactor": 0.17727299999999999
      }
    }
  ],
  "meshes": [
    {
      "name": "Object_0",
      "primitives": [
        {
          "attributes": {
            "NORMAL": 1,
            "POSITION": 0,
            "TEXCOORD_0": 2
          },
          "indices": 3,
          "material": 0,
          "mode": 4
        }
      ]
    },
    {
      "name": "Object_1",
      "primitives": [
        {
          "attributes": {
            "NORMAL": 5,
            "POSITION": 4,
            "TEXCOORD_0": 6
          },
          "indices": 7,
          "material": 1,
          "mode": 4
        }
      ]
    },
    {
      "name": "Object_2",
      "primitives": [
        {
          "attributes": {
            "NORMAL": 9,
            "POSITION": 8,
            "TEXCOORD_0": 10
          },
          "indices": 11,
          "material": 2,
          "mode": 4
        }
      ]
    },
    {
      "name": "Object_3",
      "primitives": [
        {
          "attributes": {
            "NORMAL": 13,
            "POSITION": 12,
            "TEXCOORD_0": 14
          },
          "indices": 15,
          "material": 3,
          "mode": 4
        }
      ]
    },
    {
      "name": "Object_4",
      "primitives": [
        {
          "attributes": {
            "NORMAL": 17,
            "POSITION": 16,
            "TEXCOORD_0": 18
          },
          "indices": 19,
          "material": 4,
          "mode": 4
        }
      ]
    },
    {
      "name": "Object_5",
      "primitives": [
        {
          "attributes": {
            "NORMAL": 21,
            "POSITION": 20,
            "TEXCOORD_0": 22
          },
          "indices": 23,
          "material": 5,
          "mode": 4
        }
      ]
    },
    {
      "name": "Object_6",
      "primitives": [
        {
          "attributes": {
            "NORMAL": 25,
            "POSITION": 24,
            "TEXCOORD_0": 26
          },
          "indices": 27,
          "material": 6,
          "mode": 4
        }
      ]
    },
    {
      "name": "Object_7",
      "primitives": [
        {
          "attributes": {
            "NORMAL": 29,
            "POSITION": 28,
            "TEXCOORD_0": 30
          },
          "indices": 31,
          "material": 7,
          "mode": 4
        }
      ]
    },
    {
      "name": "Object_8",
      "primitives": [
        {
          "attributes": {
            "NORMAL": 33,
            "POSITION": 32,
            "TEXCOORD_0": 34
          },
          "indices": 35,
          "material": 8,
          "mode": 4
        }
      ]
    },
    {
      "name": "Object_9",
      "primitives": [
        {
          "attributes": {
            "NORMAL": 37,
            "POSITION": 36,
            "TEXCOORD_0": 38
          },
          "indices": 39,
          "material": 9,
          "mode": 4
        }
      ]
    }
  ],
  "nodes": [
    {
      "children": [
        1
      ],
      "matrix": [
        1.0,
        0.0,
        0.0,
        0.0,
        0.0,
        2.220446049250313e-16,
        -1.0,
        0.0,
        0.0,
        1.0,
        2.220446049250313e-16,
        0.0,
        0.0,
        0.0,
        0.0,
        1.0
      ],
      "name": "Sketchfab_model"
    },
    {
      "children": [
        2
      ],
      "name": "root"
    },
    {
      "children": [
        3
      ],
      "matrix": [
        1.0,
        0.0,
        0.0,
        0.0,
        0.0,
        2.220446049250313e-16,
        1.0,
        0.0,
        0.0,
        -1.0,
        2.220446049250313e-16,
        0.0,
        0.0,
        0.0,
        0.0,
        1.0
      ],
      "name": "GLTF_SceneRootNode"
    },
    {
      "children": [
        4,
        5,
        6,
        7,
        8,
        9,
        10,
        11,
        12,
        13
      ],
      "matrix": [
        1.7944563727090375,
        1.8083068277971708,
        1.2713592021128595e-08,
        0.0,
        0.0005681637456279957,
        -0.0005638298915935595,
        2.547556989804105,
        0.0,
        1.8083067385396272,
        -1.7944562841295217,
        -0.0008004462432535455,
        0.0,
        0.0,
        3.609312057495117,
        0.0,
        1.0
      ],
      "name": "Plane_2"
    },
    {
      "mesh": 0,
      "name": "Object_4"
    },
    {
      "mesh": 1,
      "name": "Object_5"
    },
    {
      "mesh": 2,
      "name": "Object_6"
    },
    {
      "mesh": 3,
      "name": "Object_7"
    },
    {
      "mesh": 4,
      "name": "Object_8"
    },
    {
      "mesh": 5,
      "name": "Object_9"
    },
    {
      "mesh": 6,
      "name": "Object_10"
    },
    {
      "mesh": 7,
      "name": "Object_11"
    },
    {
      "mesh": 8,
      "name": "Object_12"
    },
    {
      "mesh": 9,
      "name": "Object_13"
    }
  ],
  "scene": 0,
  "scenes": [
    {
      "name": "Sketchfab_Scene",
      "nodes": [
        0
      ]
    }
  ]
}
